<svg width="1234" height="354" viewBox="0 0 1234 354" fill="none" xmlns="http://www.w3.org/2000/svg">
<path d="M879.449 177C879.449 78.9408 959.007 0 1056.45 0C1154.51 0 1233.45 79.5575 1233.45 177C1233.45 274.443 1153.89 354 1056.45 354C959.007 354 879.449 274.443 879.449 177ZM1149.57 96.2091H964.557V152.331H1149.57V96.2091ZM1149.57 201.669H964.557V257.791H1149.57V201.669Z" fill="white"/>
<path d="M159.115 96.2087H63.5226V44.4038H0V257.791H158.498C211.537 257.791 252.857 206.602 234.972 150.48C225.104 117.794 193.652 96.2087 159.115 96.2087ZM156.031 201.669H63.5226V152.331H156.031C166.516 152.331 176.383 165.282 176.383 177C175.767 188.717 166.516 201.669 156.031 201.669Z" fill="white"/>
<path d="M444.042 96.2087H347.833V44.4038H284.927V257.791H443.425C496.463 257.791 537.784 206.602 519.899 150.48C509.415 117.794 478.578 96.2087 444.042 96.2087ZM440.958 201.669H348.449V152.331H440.958C451.442 152.331 461.31 165.282 461.31 177C460.693 188.717 450.826 201.669 440.958 201.669Z" fill="white"/>
<path d="M811.61 257.79L805.442 248.54L733.902 146.78L806.676 96.2085H705.533L632.759 147.397V45.0204H569.237V258.407H632.759V218.32L682.097 183.783L732.669 256.557L733.902 258.407H802.975L811.61 257.79Z" fill="white"/>
</svg>
