<svg width="1265" height="249" viewBox="0 0 1265 249" fill="none" xmlns="http://www.w3.org/2000/svg">
<path d="M95.5685 132.4C95.5685 144.087 91.5334 153.013 77.9415 155.562C73.6939 156.412 64.137 157.475 57.7658 157.475C53.5186 157.688 39.7141 158.113 33.3428 159.175C29.7325 159.813 26.3344 160.45 23.3612 161.3V152.375C23.3612 144.087 25.9097 132.4 34.4047 123.9C47.7842 110.513 67.9599 109.025 81.5518 113.275C95.3563 117.95 95.5685 128.363 95.5685 132.4ZM113.621 156.2C116.806 150.037 118.505 141.963 118.505 132.4C118.505 117.737 113.196 106.475 103.002 98.8251C93.6574 91.8125 81.1271 88.4127 66.0485 88.4127C53.7307 88.4127 32.9181 91.3875 16.7776 108.6C12.1053 113.488 8.495 118.8 5.73411 125.175C0.8495 136.438 0 145.788 0 161.3V196.149C0.212375 204.863 1.699 211.875 4.67222 217.826C7.64548 223.774 11.4682 228.449 16.5652 232.488C22.7241 237.588 34.4047 242.263 50.3329 242.263H101.515C105.338 242.263 108.311 239.286 108.311 235.462V225.9C108.311 222.076 105.338 219.099 101.515 219.099H51.6071C39.5016 219.099 32.0686 216.55 27.3963 210.814C25.485 208.476 24.6354 205.924 23.9983 203.161C22.7241 197.214 23.1488 185.737 23.1488 185.737C23.1488 185.737 25.0602 185.101 28.6706 184.039C32.0686 182.974 36.5285 182.338 42.475 181.912C42.475 181.912 71.3577 180.636 82.826 178.299C100.029 174.689 109.373 164.7 113.621 156.2ZM251.239 212.937C254 206.139 255.274 198.275 255.274 189.561V101.163C255.274 97.3375 252.301 94.3624 248.478 94.3624H238.922C235.311 94.3624 232.126 97.3375 232.126 101.163V188.925C232.126 195.301 231.276 200.613 229.577 204.863C227.878 208.901 225.542 212.301 222.781 214.849C220.02 217.401 216.622 219.313 213.012 220.589C207.065 222.501 199.207 222.501 199.207 222.501C194.748 222.501 190.288 221.862 186.252 220.589C182.642 219.313 179.244 217.401 176.483 214.849C173.723 212.301 171.386 208.901 169.687 204.863C167.988 200.613 167.139 195.301 167.139 188.925V101.163C167.139 97.3375 164.166 94.3624 160.343 94.3624H150.786C146.963 94.3624 143.99 97.3375 143.99 101.163V189.561C143.99 198.275 145.264 206.139 148.025 212.937C150.786 219.949 154.821 225.9 159.706 230.786C164.803 235.676 170.962 239.286 177.758 241.624C183.916 243.75 190.713 244.812 197.721 245.026H199.42C207.49 245.026 214.711 243.961 221.294 241.624C228.091 239.286 234.249 235.676 239.346 230.786C244.655 225.9 248.478 219.949 251.239 212.937ZM309.642 142.175C308.368 140.475 307.731 137.287 307.518 133.25C307.518 127.938 309.642 124.962 311.341 123.05C313.04 120.925 316.014 119.012 319.836 117.1C323.871 115.188 329.818 114.338 337.676 114.338C343.197 114.338 348.082 114.975 352.543 116.038C356.576 117.1 359.762 118.587 362.524 120.713C365.071 122.838 367.196 125.387 368.471 128.575C369.532 131.125 370.382 134.525 370.593 138.137V138.563C370.807 141.963 373.569 144.938 377.391 144.938H386.946C390.768 144.938 393.744 141.963 393.744 138.137C393.744 138.137 393.53 134.525 393.105 131.337C391.193 118.8 386.096 109.45 377.602 102.863C367.621 95 354.24 91.1749 337.676 91.1749C328.544 91.1749 320.686 92.4501 314.102 94.7877C307.518 97.1249 301.784 100.525 297.325 104.35C292.652 108.388 289.467 113.275 287.343 118.375C285.432 123.263 284.37 128.15 284.37 132.825C284.37 141.538 286.069 148.763 289.467 154.5C292.864 160.238 298.386 164.913 305.395 167.888C309.43 169.588 314.102 171.288 319.199 172.777H319.411C319.411 172.777 340.437 178.513 352.329 181.276C357.001 182.338 361.038 184.039 364.646 185.951C367.621 187.649 369.957 189.776 371.868 192.113C373.144 194.026 373.99 196.999 373.99 200.613C373.99 204.226 373.144 207.411 371.654 209.749C369.743 212.511 367.407 214.849 364.435 216.55C361.248 218.463 357.641 219.949 353.604 220.8C349.144 221.651 345.109 222.287 341.074 222.287C328.119 222.287 318.137 219.524 311.553 214.213C306.457 209.963 303.483 203.161 302.846 193.811V192.964C302.421 189.561 299.448 187.013 296.05 187.013H286.493C282.671 187.013 279.697 189.987 279.697 193.811V194.451C279.91 197.639 280.335 200.824 280.759 203.801C283.095 215.7 288.193 225.05 295.838 231.637C306.244 240.562 321.535 245.237 341.074 245.237C347.232 245.237 353.604 244.601 359.762 243.114C366.346 241.624 372.504 239.075 377.816 235.676C383.549 232.062 388.007 227.387 391.619 221.651C395.23 215.7 397.141 208.476 397.141 200.187C397.141 192.324 395.441 185.526 392.044 180.211C388.857 175.114 384.61 171.075 379.513 167.675C374.84 164.7 369.532 162.362 363.799 160.663C363.799 160.663 347.232 156.2 329.818 151.738C324.933 150.462 320.261 148.975 316.226 147.275C313.677 146 311.341 144.513 309.642 142.175ZM539.644 238.65C540.069 237.799 540.279 236.738 540.279 235.676C540.279 234.189 539.858 232.699 538.793 231.426C538.793 231.426 487.187 166.613 477.417 154.288C481.029 151.313 534.971 106.475 534.971 106.475C536.672 105.2 537.522 103.288 537.522 101.163C537.522 100.312 537.307 99.6751 537.097 98.8251C536.246 96.0626 533.485 94.3624 530.724 94.3624H516.282C514.796 94.3624 513.31 95 512.035 95.8499C512.035 95.8499 454.906 143.237 447.472 149.4V68.65C447.472 65.0376 444.5 61.8501 440.678 61.8501H431.119C427.511 61.8501 424.325 65.0376 424.325 68.65V235.676C424.325 239.5 427.297 242.474 431.119 242.474H440.678C444.5 242.474 447.472 239.5 447.472 235.676V179.575C448.958 178.513 456.817 171.713 459.792 169.375C462.975 173.198 515.646 239.926 515.646 239.926C516.921 241.624 518.832 242.474 520.954 242.474H533.485C536.032 242.474 538.368 240.987 539.644 238.65ZM651.565 184.25C651.565 192.539 649.018 204.226 640.52 212.726C627.143 226.111 606.967 227.813 593.375 223.349C579.569 218.888 579.144 208.476 579.144 204.437C579.144 192.75 583.181 183.825 596.772 181.276C601.02 180.426 610.579 179.364 616.948 179.364C621.195 179.15 635.001 178.724 641.37 177.663C644.982 177.026 648.379 176.387 651.354 175.536L651.565 184.25ZM668.979 211.45C673.866 200.187 674.713 190.837 674.713 175.325V140.475C674.502 131.762 673.016 124.75 670.04 118.8C667.068 112.85 663.246 108.175 658.149 104.138C651.99 99.2501 640.309 94.3624 624.381 94.3624H573.2C569.378 94.3624 566.402 97.3375 566.402 101.163V110.725C566.402 114.55 569.378 117.525 573.2 117.525H623.32C635.426 117.525 642.856 120.075 647.529 125.813C649.443 128.15 650.29 130.7 650.929 133.463C652.201 139.413 651.776 150.888 651.776 150.888C651.776 150.888 649.865 151.525 646.257 152.588C642.856 153.65 638.398 154.288 632.451 154.713C632.451 154.713 603.57 155.987 592.1 158.325C574.897 161.937 565.552 171.925 561.305 180.211C558.122 186.377 556.422 194.451 556.422 204.012C556.422 218.673 561.73 229.939 571.925 237.588C581.269 244.601 593.8 248 608.878 248C621.195 248 642.01 245.026 658.149 227.602C662.821 223.138 666.432 217.826 668.979 211.45ZM728.019 235.676V50.8C728.019 46.9748 725.047 44 721.225 44H711.666C707.844 44 704.872 46.9748 704.872 50.8V235.676C704.872 239.5 707.844 242.474 711.666 242.474H721.225C725.047 242.474 728.019 239.5 728.019 235.676ZM828.685 110.938V101.375C828.685 97.5498 825.713 94.575 821.891 94.575H799.38V68.8624C799.38 65.0376 796.404 62.0624 792.582 62.0624H783.026C779.204 62.0624 776.229 65.0376 776.229 68.8624V94.575H759.24C755.417 94.575 752.442 97.5498 752.442 101.375V110.938C752.442 114.55 755.417 117.737 759.24 117.737H776.229V209.112C776.229 221.651 779.415 229.514 785.573 235.036C789.395 238.439 795.132 241.202 802.352 242.049C811.696 243.325 821.677 241.413 821.677 241.413C825.074 240.987 827.624 238.224 827.835 234.825V225.05C827.835 223.138 826.988 221.225 825.499 219.949C824.013 218.673 822.102 218.037 819.98 218.463C819.98 218.463 809.996 220.589 803.412 219.524C801.926 219.313 801.076 218.037 800.226 216.339C799.805 215.489 799.165 213.151 799.165 208.262V117.737H821.677C825.713 117.737 828.685 114.763 828.685 110.938ZM943.157 132.4C943.157 144.087 939.121 153.013 925.529 155.562C921.282 156.412 911.723 157.475 905.354 157.475C901.106 157.688 887.3 158.113 880.931 159.175C877.32 159.813 873.922 160.45 870.947 161.3V152.375C870.947 144.087 873.497 132.4 881.992 123.9C895.373 110.513 915.548 109.025 929.14 113.275C942.943 117.95 943.157 128.363 943.157 132.4ZM961.207 156.2C964.394 150.037 966.094 141.963 966.094 132.4C966.094 117.737 960.782 106.475 950.587 98.8251C941.243 91.8125 928.715 88.4127 913.637 88.4127C901.317 88.4127 880.506 91.3875 864.364 108.6C859.691 113.488 856.083 118.8 853.322 125.175C848.435 136.438 847.589 145.788 847.589 161.3V196.149C847.8 204.863 849.286 211.875 852.261 217.826C855.233 223.774 859.055 228.449 864.153 232.488C870.311 237.588 881.992 242.263 897.92 242.263H949.526C953.349 242.263 956.324 239.286 956.324 235.462V225.9C956.324 222.076 953.349 219.099 949.526 219.099H899.406C887.3 219.099 879.867 216.55 875.194 210.814C873.283 208.476 872.436 205.924 871.797 203.161C870.522 197.214 870.947 185.737 870.947 185.737C870.947 185.737 872.862 185.101 876.469 184.039C879.867 182.974 884.328 182.338 890.276 181.912C890.276 181.912 919.156 180.636 930.626 178.299C947.615 174.689 956.96 164.7 961.207 156.2ZM1016 235.676V50.8C1016 46.9748 1013.03 44 1009.21 44H999.647C995.825 44 992.853 46.9748 992.853 50.8V235.676C992.853 239.5 995.825 242.474 999.647 242.474H1009.21C1013.03 242.474 1016 239.5 1016 235.676Z" fill="white"/>
<path d="M1140 27.2187C1112.57 56.6755 1092.58 97.9999 1092.58 127.881V130C1082.38 110.503 1076 84.0133 1076 59.2188C1076 28.7022 1087.69 2 1107.25 2C1119.59 2 1131.07 11.9606 1140 27.2187Z" fill="white"/>
<path d="M1201 225.85C1199.3 241.355 1191.86 249 1180.17 249C1154.03 249 1124.27 212.257 1113 177C1134.89 201.85 1170.39 219.266 1201 225.85Z" fill="white"/>
<path d="M1265 192.181C1264.79 212.399 1244.01 219 1226.41 219C1179.34 219 1103 178.56 1103 127.909C1103 78.5329 1161.31 0 1206.48 0C1224.07 0 1235.1 12.9826 1235.1 34.0521C1235.1 75.5535 1201.81 116.629 1195.66 123.652C1200.75 125.355 1265 155.15 1265 192.181Z" fill="white"/>
</svg>
