<svg width="859" height="366" viewBox="0 0 859 366" fill="none" xmlns="http://www.w3.org/2000/svg">
<path fill-rule="evenodd" clip-rule="evenodd" d="M141.514 49.4971C138.753 26.4914 118.736 0 102.859 0C110.452 6.27429 118.045 36.2514 111.143 55.0743C110.452 57.1657 97.3373 99.6914 85.6027 138.034L69.7266 191.017C68.3461 199.383 66.2753 204.96 66.2753 215.417C66.2753 225.177 67.6558 234.937 71.1071 243.303C42.8062 227.966 23.4787 197.989 22.7884 162.434C22.0982 122 46.2575 87.1429 80.7709 73.8971C80.7709 85.0514 82.8417 99.6914 86.9833 101.086C89.7443 92.72 93.8859 78.08 93.8859 78.08L102.859 48.8L103.55 44.6171C104.93 31.3714 101.479 15.3371 97.3373 6.97143C98.7178 9.76 89.7443 32.7657 89.0541 37.6457C89.0541 38.3429 87.6735 43.2229 86.293 48.1029C35.9035 59.9543 -0.680661 107.36 0.00960576 163.131C1.39014 224.48 46.9478 273.977 105.62 276.766C89.7443 271.189 86.293 242.606 93.1957 223.783C93.8859 221.691 107.001 179.166 118.736 140.823L134.612 87.84C135.992 82.96 136.682 78.08 138.063 72.5029C173.957 83.6571 200.187 118.514 200.877 159.646C201.568 205.657 170.506 244 128.399 252.366V250.274L144.966 202.171C144.966 202.171 149.798 172.194 125.638 157.554L102.859 230.057C100.098 241.211 100.789 248.88 102.859 254.457C107.691 269.097 120.806 275.371 131.16 275.371C185.001 265.611 224.346 217.509 223.656 158.949C222.966 106.663 187.762 62.7429 141.514 49.4971Z" fill="white"/>
<path fill-rule="evenodd" clip-rule="evenodd" d="M256.099 89.9313C265.072 100.388 267.143 106.663 267.143 119.211V215.417C267.143 227.966 265.072 234.937 258.17 244.697C257.479 245.394 256.789 246.091 256.099 247.486H327.887C327.196 246.788 326.506 245.394 325.816 244.697C318.913 234.937 316.842 228.663 316.842 215.417V119.211C316.842 106.663 319.604 99.6913 328.577 89.9313C329.267 89.2341 329.958 88.537 331.338 87.8399H254.028" fill="white"/>
<path fill-rule="evenodd" clip-rule="evenodd" d="M429.356 246.789C428.666 246.092 427.975 245.394 427.285 244C419.692 234.24 417.621 227.269 419.692 214.72L427.975 149.886L454.206 219.6L456.967 227.269L457.657 229.36C458.347 231.452 459.728 232.846 460.418 234.937C465.94 244 472.843 249.577 486.648 254.457L491.48 256.549L493.551 257.246L533.586 151.977L539.799 215.417C541.179 227.966 538.418 234.937 527.374 244.697C525.993 245.394 525.303 246.789 524.613 247.486H606.755C606.064 246.789 605.374 246.092 604.684 244.697C595.71 234.24 592.949 227.966 591.569 215.417L580.524 119.212C579.144 106.663 580.524 99.6916 586.737 89.9316C587.427 89.2345 588.117 87.8402 588.808 87.1431H522.542L490.099 173.589L459.037 87.1431H394.152C394.843 87.8402 395.533 89.2345 396.223 89.9316C402.436 99.6916 403.126 106.663 401.055 119.212L385.869 215.417C385.869 217.509 384.489 220.994 383.798 224.48C381.037 232.149 378.276 237.029 371.374 244.697C370.683 245.394 369.993 246.092 369.303 247.486L429.356 246.789Z" fill="white"/>
<path fill-rule="evenodd" clip-rule="evenodd" d="M276.117 365.303C261.621 365.303 256.099 349.966 256.099 330.446C256.099 310.926 262.311 295.589 276.807 295.589C288.541 295.589 292.683 302.56 294.754 312.32L285.09 314.412C283.709 308.137 281.639 305.349 276.807 305.349C268.524 305.349 266.453 318.594 266.453 330.446C266.453 342.994 269.214 356.24 277.497 356.24C282.329 356.24 284.4 353.452 285.78 345.783L294.754 348.572C291.993 358.332 287.161 365.303 276.117 365.303Z" fill="white"/>
<path fill-rule="evenodd" clip-rule="evenodd" d="M326.506 364.606V361.12C324.435 363.908 320.984 366 316.842 366C307.178 366 303.727 359.726 303.727 347.177V313.714H313.391V345.086C313.391 353.451 314.771 356.937 319.603 356.937C322.364 356.937 325.125 355.543 327.196 352.057V313.714H336.86V364.606H326.506Z" fill="white"/>
<path fill-rule="evenodd" clip-rule="evenodd" d="M352.046 305.349C348.594 305.349 345.833 302.56 345.833 299.771C345.833 296.286 348.594 294.194 352.046 294.194C355.497 294.194 357.568 296.983 357.568 299.771C358.258 303.257 355.497 305.349 352.046 305.349Z" fill="white"/>
<path d="M357.57 313.712H347.906V364.6H357.57V313.712Z" fill="white"/>
<path fill-rule="evenodd" clip-rule="evenodd" d="M392.082 315.806V298.378L401.745 293.497V364.606H392.082V361.12C389.321 363.212 387.25 365.303 382.418 365.303C373.444 365.303 367.232 358.332 367.232 338.115C367.232 321.383 372.754 312.32 383.108 312.32C386.56 312.32 389.321 313.018 392.082 315.806ZM384.489 356.938C387.25 356.938 390.701 354.846 392.082 352.058H392.772V326.263C390.701 322.777 387.25 321.383 384.489 321.383C379.657 321.383 376.896 326.263 376.896 338.115C376.896 351.36 378.967 356.938 384.489 356.938Z" fill="white"/>
<path fill-rule="evenodd" clip-rule="evenodd" d="M414.17 317.2C418.312 314.411 423.834 312.32 428.666 312.32C439.71 312.32 443.851 316.503 445.232 327.657V363.211H435.568V359.725C432.807 363.211 430.046 364.605 425.214 364.605C417.621 364.605 411.409 359.028 411.409 347.874C411.409 336.72 418.312 331.143 427.975 331.143C430.736 331.143 433.497 331.84 435.568 332.537V327.657C435.568 322.777 433.497 320.685 428.666 320.685C425.214 320.685 422.453 322.08 418.312 324.171L414.17 317.2ZM425.905 357.634C430.046 357.634 432.807 355.543 434.878 352.754V342.297C432.807 340.903 430.736 340.205 427.285 340.205C422.453 340.205 419.692 342.994 419.692 348.571C419.692 354.845 421.763 357.634 425.905 357.634Z" fill="white"/>
<path fill-rule="evenodd" clip-rule="evenodd" d="M499.763 364.605V333.234C499.763 324.868 499.073 321.383 494.241 321.383C491.48 321.383 488.719 322.777 486.648 326.263V364.605H476.985V333.234C476.985 324.868 476.294 321.383 471.463 321.383C468.701 321.383 465.94 322.777 463.87 326.263V364.605H454.206V313.714H463.87V317.2C465.94 314.411 469.392 312.32 473.533 312.32C478.365 312.32 481.817 314.411 483.887 317.897C487.339 313.714 491.48 312.32 495.622 312.32C505.976 312.32 508.737 318.594 508.737 332.537V364.605H499.763Z" fill="white"/>
<path fill-rule="evenodd" clip-rule="evenodd" d="M518.4 338.811C518.4 321.383 525.303 312.32 537.037 312.32C548.081 312.32 555.674 321.383 554.984 338.811C554.984 356.24 547.391 365.303 536.347 365.303C525.993 365.303 518.4 356.937 518.4 338.811ZM528.064 339.508C528.064 351.36 530.825 356.937 537.037 356.937C543.25 356.937 546.011 349.965 546.011 339.508C546.011 328.354 543.25 322.08 537.037 322.08C530.825 322.08 528.064 327.657 528.064 339.508Z" fill="white"/>
<path fill-rule="evenodd" clip-rule="evenodd" d="M577.073 365.303C571.551 365.303 566.029 363.211 561.197 359.726L564.648 352.057C569.48 354.846 572.932 356.24 576.383 356.24C580.525 356.24 583.286 354.149 583.286 350.663C583.286 347.177 580.524 345.086 573.622 340.903C567.409 337.417 563.268 333.931 563.268 325.566C563.268 316.503 568.79 311.623 577.763 311.623C583.286 311.623 588.117 313.714 591.569 316.503L587.427 324.171C583.976 322.08 580.525 320.686 577.073 320.686C573.622 320.686 572.241 322.777 572.241 324.869C572.241 327.657 573.622 329.749 580.525 333.234C588.117 337.417 592.949 340.903 592.949 349.269C592.949 360.423 587.427 365.303 577.073 365.303Z" fill="white"/>
<path fill-rule="evenodd" clip-rule="evenodd" d="M642.648 315.806V298.378L652.312 293.497V364.606H642.648V361.12C639.887 363.212 637.816 365.303 632.984 365.303C624.011 365.303 617.799 358.332 617.799 338.115C617.799 321.383 623.321 312.32 633.675 312.32C637.126 312.32 639.887 313.018 642.648 315.806ZM635.055 356.938C637.816 356.938 641.268 354.846 642.648 352.058H643.339V326.263C641.268 322.777 637.816 321.383 635.055 321.383C630.223 321.383 627.462 326.263 627.462 338.115C627.462 351.36 629.533 356.938 635.055 356.938Z" fill="white"/>
<path fill-rule="evenodd" clip-rule="evenodd" d="M679.923 312.32C690.277 312.32 697.87 321.383 697.87 338.811V341.6H670.949C671.639 352.057 675.091 356.24 680.613 356.24C684.755 356.24 686.825 355.543 689.586 352.754L695.109 358.331C691.657 362.514 686.825 365.303 679.923 365.303C668.188 365.303 661.285 354.845 661.285 338.811C661.285 321.383 668.878 312.32 679.923 312.32ZM679.232 320.685C675.091 320.685 671.639 324.868 670.949 333.931H688.206C687.516 326.263 684.755 320.685 679.232 320.685Z" fill="white"/>
<path fill-rule="evenodd" clip-rule="evenodd" d="M744.118 363.211C742.047 364.606 739.286 365.303 735.834 365.303C728.932 365.303 726.171 360.423 726.171 352.057V322.08H720.648V313.714H726.171V299.074L735.834 294.194V313.714H745.498V322.777H735.834V352.057C735.834 355.543 737.215 356.937 739.976 356.937C742.737 356.937 744.808 356.24 746.188 354.846L744.118 363.211Z" fill="white"/>
<path fill-rule="evenodd" clip-rule="evenodd" d="M759.994 305.349C756.542 305.349 753.781 302.56 753.781 299.771C753.781 296.286 756.542 294.194 759.994 294.194C763.445 294.194 765.516 296.983 765.516 299.771C766.206 303.257 763.445 305.349 759.994 305.349Z" fill="white"/>
<path d="M765.519 313.712H755.855V364.6H765.519V313.712Z" fill="white"/>
<path fill-rule="evenodd" clip-rule="evenodd" d="M784.844 233.542C786.224 234.24 786.915 234.937 788.295 236.331C814.525 259.337 837.304 267.005 858.012 264.217C848.348 285.828 824.879 292.103 781.393 274.674C770.348 270.491 755.853 262.822 735.145 249.577L732.383 247.485C725.481 247.485 718.578 246.788 712.366 245.394C661.976 234.24 635.056 189.622 646.79 142.914C650.932 126.88 659.215 112.24 671.64 101.085C685.445 88.5368 701.321 81.5653 725.481 78.7768C733.764 78.0796 742.047 78.0796 750.33 78.7768C807.623 85.0511 840.065 133.851 822.118 186.834C816.596 204.96 805.552 219.6 789.676 230.057L786.915 232.148L784.844 233.542ZM702.012 186.834C712.366 208.445 726.171 217.508 741.357 216.811C765.516 216.114 777.941 201.474 777.251 167.314C776.561 153.371 774.49 142.217 770.348 133.154C759.994 110.148 744.118 99.6911 727.552 101.085C704.773 102.48 690.277 122.697 693.729 158.251C695.109 170.102 697.87 179.165 702.012 186.834Z" fill="white"/>
</svg>
