<svg width="780" height="547" viewBox="0 0 780 547" fill="none" xmlns="http://www.w3.org/2000/svg">
<path fill-rule="evenodd" clip-rule="evenodd" d="M116.277 287.452C122.867 281.124 129.627 274.899 136.088 268.377C150.727 253.597 165.213 238.663 179.774 223.805C199.145 204.04 218.426 184.185 237.954 164.574C247.817 154.666 259.444 147.562 273.452 145.049C301.626 139.994 332.292 159.234 334.327 192.047C335.38 209.047 329.983 223.985 317.87 236.072C294.681 259.214 271.308 282.176 247.911 305.109C246.274 306.713 246.505 307.592 247.483 309.278C275.624 357.766 303.725 406.277 331.797 454.806C338.891 467.066 343.209 480.1 342.473 494.494C340.889 525.472 314.161 548.661 283.246 546.05C260.416 544.12 243.894 532.435 232.898 512.971C210.087 472.595 187.697 431.98 165.132 391.464C163.487 388.508 163.507 388.528 161.14 390.867C146.806 405.024 132.476 419.185 118.099 433.297C116.79 434.582 116.224 435.878 116.232 437.726C116.298 453.452 116.384 469.18 116.244 484.905C116.092 501.833 111.531 517.251 99.4414 529.676C87.7914 541.647 73.1754 546.569 56.7794 546.143C40.0704 545.707 25.5394 539.87 14.4394 526.938C4.86143 515.781 0.544424 502.508 0.212424 488.02C-0.137576 472.773 0.0504293 457.513 0.0504293 442.259C0.0444293 315.598 0.052425 188.939 0.044425 62.278C0.044425 47.932 3.07743 34.424 11.6894 22.695C23.6774 6.36503 40.4104 -0.524965 60.1934 0.0310348C90.0914 0.871035 111.91 21.177 115.511 50.809C116.023 55.021 116.269 59.235 116.269 63.469C116.275 137.3 116.271 211.13 116.29 284.96C116.29 285.926 115.966 286.969 116.277 287.452ZM308.087 488.725C308.023 475.878 297.53 465.542 284.593 465.584C271.917 465.625 261.306 476.267 261.435 488.813C261.566 501.749 272.021 512.179 284.831 512.158C297.652 512.136 308.152 501.558 308.087 488.725ZM58.1344 38.62C47.3554 38.597 38.6424 47.209 38.6774 57.854C38.7124 68.333 47.4744 77.035 57.9764 77.019C68.5624 77.003 77.1034 68.511 77.2464 57.864C77.3844 47.425 68.6634 38.643 58.1344 38.62ZM57.8434 469.364C47.2144 469.364 38.5684 477.925 38.5684 488.449C38.5684 498.97 47.2164 507.71 57.6994 507.779C68.3384 507.85 77.1234 499.091 77.0844 488.453C77.0464 477.851 68.4924 469.363 57.8434 469.364ZM262.89 196.411C262.896 206.973 271.499 215.683 281.986 215.743C292.447 215.803 301.277 207.059 301.31 196.607C301.347 185.856 292.724 177.192 282.031 177.235C271.37 177.278 262.884 185.78 262.89 196.411Z" fill="white"/>
<path fill-rule="evenodd" clip-rule="evenodd" d="M602.622 506.251C602.169 509.838 600.726 511.374 598.192 511.163C595.784 510.963 594.573 509.29 594.571 506.061C594.563 487.991 594.563 469.921 594.571 451.851C594.573 448.446 595.837 446.854 598.499 446.814C601.198 446.774 602.468 448.332 602.476 451.761C602.49 457.852 602.48 463.944 602.48 470.41C607.705 464.558 614.001 463.827 620.662 465.805C627.24 467.759 630.295 472.943 631.428 479.375C632.715 486.678 632.858 494 630.391 501.091C626.359 512.688 611.035 515.656 602.622 506.251ZM624.054 488.228C623.993 485.137 624.068 482.04 622.943 479.061C621.277 474.646 617.943 472.268 613.283 472.283C608.554 472.299 604.935 474.778 603.601 479.368C601.919 485.152 601.915 491.067 603.499 496.864C604.872 501.897 608.843 504.621 613.724 504.354C618.783 504.077 622.156 501.149 623.412 496.07C624.052 493.479 623.988 490.856 624.054 488.228Z" fill="white"/>
<path fill-rule="evenodd" clip-rule="evenodd" d="M573.452 506.61C568.411 511.424 562.393 512.385 555.88 511.379C548.036 510.167 543.607 505.211 543.819 497.955C544.04 490.462 548.651 485.651 556.532 484.705C560.936 484.176 565.362 484.433 569.778 484.459C571.462 484.469 572.005 484.061 572.016 482.274C572.057 475.101 568.252 471.595 560.745 472.076C557.802 472.264 555.007 472.956 552.358 474.252C550.303 475.257 548.323 475.522 546.993 473.194C545.899 471.282 546.7 469.079 549.182 467.863C556.635 464.213 564.368 463.675 572.067 466.866C576.499 468.701 578.672 472.569 579.337 477.223C580.271 483.774 579.673 490.372 579.747 496.948C579.776 499.459 580.179 501.723 581.485 503.918C583.381 507.106 583.106 509.334 580.964 510.581C578.607 511.954 576.495 511.13 574.474 508.059C574.167 507.595 573.833 507.149 573.452 506.61ZM564.802 490.835C561.855 490.921 558.548 490.526 555.402 491.919C553.111 492.935 551.863 494.64 551.64 497.084C551.415 499.581 552.093 501.749 554.253 503.251C558.148 505.961 566.46 505.166 569.808 501.774C571.513 500.048 573.244 492.904 571.845 491.456C570.351 489.91 567.95 491.132 565.972 490.84C565.697 490.8 565.408 490.835 564.802 490.835Z" fill="white"/>
<path fill-rule="evenodd" clip-rule="evenodd" d="M678.197 489.169C678.197 491.523 678.297 493.883 678.172 496.231C678.014 499.149 678.67 501.758 680.19 504.279C681.864 507.054 681.52 509.281 679.581 510.497C677.321 511.914 674.946 511.271 673.239 508.379C672.206 506.629 671.655 506.815 670.233 507.993C664.667 512.602 653.987 513.031 647.878 509.112C643.136 506.069 642.149 501.475 642.55 496.317C642.917 491.584 645.32 488.24 649.611 486.246C652.572 484.871 655.732 484.465 658.951 484.427C662.058 484.39 665.172 484.312 668.271 484.465C670.232 484.562 670.632 483.75 670.587 481.998C670.409 474.941 666.595 471.573 659.241 472.074C656.296 472.275 653.512 473 650.85 474.281C648.813 475.26 646.78 475.516 645.481 473.167C644.438 471.282 645.356 469.021 647.733 467.839C654.811 464.318 662.2 463.793 669.61 466.469C675.714 468.675 677.829 473.82 678.157 479.846C678.323 482.945 678.186 486.06 678.186 489.168C678.189 489.169 678.191 489.169 678.197 489.169ZM663.425 490.84C660.525 490.852 657.607 490.632 654.78 491.547C651.874 492.487 650.225 494.508 650.077 497.52C649.95 500.105 650.911 502.278 653.317 503.612C655.008 504.55 656.895 504.868 658.739 504.866C664.55 504.86 670.985 503.143 670.591 494.466C670.425 490.83 670.575 490.823 666.8 490.831C665.673 490.834 664.548 490.832 663.425 490.84Z" fill="white"/>
<path fill-rule="evenodd" clip-rule="evenodd" d="M383.808 487.32C389.497 480.906 394.726 475.011 399.954 469.116C400.516 468.483 401.061 467.834 401.649 467.226C403.555 465.257 405.815 464.925 407.342 466.366C408.742 467.688 408.576 469.971 406.844 471.898C404.203 474.834 401.612 477.825 398.803 480.592C397.282 482.091 397.057 483.101 398.309 485.006C402.536 491.435 406.52 498.023 410.553 504.577C412.19 507.237 411.817 509.501 409.686 510.665C407.563 511.824 405.407 511.055 403.813 508.467C400.122 502.474 396.473 496.455 392.79 490.457C392.409 489.837 392.206 489.057 391.352 488.685C389.182 491.109 387.028 493.591 384.78 495.983C383.997 496.816 383.768 497.675 383.79 498.764C383.845 501.492 383.856 504.222 383.794 506.95C383.733 509.56 382.198 511.156 379.882 511.172C377.558 511.188 375.921 509.595 375.915 507.001C375.88 488.371 375.882 469.74 375.911 451.11C375.917 448.29 377.489 446.74 379.999 446.815C382.401 446.886 383.784 448.35 383.794 451.109C383.829 462.494 383.808 473.88 383.808 485.265C383.808 485.717 383.808 486.169 383.808 487.32Z" fill="white"/>
<path fill-rule="evenodd" clip-rule="evenodd" d="M759.327 488.533C757.005 491.12 754.845 493.601 752.595 495.994C751.804 496.834 751.618 497.72 751.636 498.798C751.681 501.528 751.712 504.261 751.632 506.989C751.554 509.611 749.98 511.191 747.661 511.169C745.331 511.146 743.761 509.563 743.755 506.942C743.726 488.299 743.726 469.658 743.755 451.015C743.759 448.29 745.206 446.826 747.622 446.814C750.155 446.802 751.628 448.318 751.638 451.185C751.671 462.106 751.652 473.028 751.652 483.95C751.652 484.852 751.652 485.754 751.652 487.295C757.248 480.986 762.394 475.178 767.548 469.375C768.359 468.461 769.15 467.522 770.028 466.676C771.598 465.162 773.479 464.868 775.069 466.366C776.651 467.858 776.497 469.776 775.053 471.397C772.115 474.696 769.164 477.988 766.1 481.167C764.975 482.333 764.969 483.149 765.823 484.485C770.073 491.131 774.212 497.85 778.385 504.546C779.649 506.571 780.078 508.611 777.992 510.345C776.031 511.976 773.437 511.291 771.83 508.707C768.209 502.883 764.666 497.01 761.08 491.165C760.552 490.306 759.962 489.484 759.327 488.533Z" fill="white"/>
<path fill-rule="evenodd" clip-rule="evenodd" d="M701.536 470.005C704.464 466.698 708.22 465.061 712.628 464.935C722.136 464.663 728.55 470.228 728.923 479.742C729.282 488.857 729.073 497.995 729.021 507.122C729.007 509.675 727.265 511.236 724.921 511.171C722.614 511.109 721.161 509.508 721.15 506.83C721.117 499.678 721.144 492.526 721.132 485.374C721.13 484.152 721.14 482.921 721.007 481.709C720.327 475.467 716.679 472.093 710.886 472.291C705.208 472.485 701.212 476.544 701.113 482.558C700.988 489.991 701.097 497.426 701.076 504.86C701.074 505.982 701.039 507.129 700.808 508.219C700.408 510.123 699.038 511.098 697.171 511.137C695.335 511.176 693.859 510.403 693.353 508.461C693.142 507.654 692.996 506.804 692.994 505.973C692.971 494.21 692.969 482.447 692.998 470.683C693 469.762 693.152 468.805 693.434 467.928C693.998 466.173 695.373 465.497 697.139 465.497C698.825 465.497 699.961 466.332 700.694 467.809C701.017 468.468 700.667 469.35 701.536 470.005Z" fill="white"/>
<path fill-rule="evenodd" clip-rule="evenodd" d="M448.63 506.306C444.859 510.764 439.985 512.286 434.448 511.583C426.446 510.567 421.569 505.388 421.241 496.928C420.887 487.811 421.079 478.67 421.13 469.541C421.144 466.94 422.814 465.451 425.212 465.498C427.614 465.545 428.985 467.018 428.999 469.766C429.036 476.826 428.991 483.886 429.026 490.946C429.034 492.631 429.073 494.342 429.358 495.995C430.329 501.64 433.954 504.661 439.221 504.367C444.635 504.065 448.586 500.3 448.737 494.748C448.956 486.659 448.86 478.56 448.868 470.467C448.868 468.915 448.997 467.454 450.28 466.368C451.477 465.355 452.864 465.232 454.26 465.726C455.815 466.276 456.719 467.443 456.752 469.134C456.797 471.392 456.789 473.651 456.789 475.91C456.793 485.794 456.795 495.679 456.789 505.562C456.785 509.32 455.693 510.967 453.111 511.163C450.661 511.349 449.345 509.957 448.63 506.306Z" fill="white"/>
<path fill-rule="evenodd" clip-rule="evenodd" d="M516.298 480.976C519.417 476.52 522.384 472.294 525.331 468.057C526.155 466.873 527.06 465.8 528.569 465.541C529.965 465.301 531.206 465.639 532.071 466.835C533.219 468.422 532.993 470.006 531.925 471.532C528.747 476.073 525.659 480.684 522.323 485.106C520.983 486.88 521.175 488.021 522.434 489.695C525.879 494.273 529.12 499.006 532.436 503.68C532.815 504.216 533.2 504.754 533.512 505.329C534.584 507.308 534.563 509.248 532.58 510.547C530.633 511.823 528.715 511.259 527.377 509.428C524.328 505.255 521.385 501.007 518.397 496.79C517.749 495.874 517.096 494.96 516.288 493.824C512.919 498.576 509.675 503.156 506.425 507.73C505.935 508.418 505.462 509.129 504.888 509.74C503.413 511.302 501.65 511.772 499.847 510.45C498.04 509.123 497.921 507.221 499.033 505.429C500.517 503.039 502.209 500.776 503.834 498.475C506.002 495.404 508.131 492.303 510.398 489.308C511.443 487.929 511.611 486.969 510.459 485.441C507.236 481.169 504.242 476.722 501.191 472.322C499.281 469.568 499.32 467.481 501.228 466.114C503.175 464.718 505.517 465.468 507.388 468.143C510.333 472.353 513.249 476.583 516.298 480.976Z" fill="white"/>
<path fill-rule="evenodd" clip-rule="evenodd" d="M472.99 487.626C472.99 483.485 472.879 479.339 473.035 475.203C473.119 473.036 472.596 472.207 470.248 472.312C467.121 472.452 465.564 470.085 466.824 467.612C467.535 466.219 468.785 465.822 470.138 466.001C472.628 466.33 473.195 465.193 473.029 462.954C472.857 460.614 472.961 458.25 472.994 455.897C473.037 452.944 474.392 451.388 476.855 451.383C479.212 451.378 480.804 453.074 480.886 455.873C480.966 458.6 480.968 461.334 480.876 464.061C480.829 465.5 481.237 466.118 482.767 465.994C484.265 465.873 485.779 465.944 487.283 465.985C489.416 466.043 490.64 467.086 490.592 469.304C490.547 471.392 489.336 472.318 487.336 472.367C487.242 472.37 487.147 472.361 487.053 472.373C485.055 472.632 482.375 471.405 481.221 472.986C480.268 474.295 480.916 476.795 480.91 478.767C480.894 484.979 480.892 491.192 480.908 497.405C480.92 502.563 481.709 503.4 486.875 503.829C489.568 504.054 490.746 505.288 490.604 507.708C490.473 509.894 489.09 510.997 487.141 511.104C478.729 511.569 472.83 509.229 472.981 498.92C473.035 495.158 472.99 491.392 472.99 487.626Z" fill="white"/>
</svg>
