<svg width="684" height="376" viewBox="0 0 684 376" fill="none" xmlns="http://www.w3.org/2000/svg">
<path d="M0.0341995 372.922H15.3558V342.467C15.3558 337.06 15.3558 330.354 18.126 326.453C20.8962 322.175 25.8552 320.806 28.6254 320.806C41.5188 320.806 41.5188 336.034 41.5188 341.338V372.956H56.8746V338.326C56.8746 333.365 56.8746 322.62 50.9922 315.605C45.6912 309.138 37.278 306.708 31.7376 306.708C22.0248 306.708 16.7238 312.046 14.193 314.442V308.898H0L0.0341995 372.922Z" fill="white"/>
<path fill-rule="evenodd" clip-rule="evenodd" d="M126.57 347.775C127.014 345.688 127.493 343.053 127.493 340.041C127.493 323.89 114.702 306.336 94.3877 306.336C74.6543 306.336 60.7349 322.966 60.7349 341.068C60.7349 359.751 75.4751 374.979 94.5245 374.979C109.504 374.979 121.713 364.268 125.407 352.702H109.265C106.392 358.006 101.33 360.881 94.5245 360.881C83.5805 360.881 77.5955 351.881 76.8773 347.741L126.57 347.775ZM76.4327 335.422C79.3055 323.548 88.8815 320.434 94.5245 320.434C102.117 320.434 110.085 325.156 111.795 335.422H76.4327Z" fill="white"/>
<path d="M147.179 372.922H156.618L168.725 331.414H168.964L180.968 372.922H190.407L213.8 308.898H197.453L185.688 348.01H185.448L175.086 308.898H162.842L152.343 347.976H152.103L140.475 308.864H124.094L147.179 372.922Z" fill="white"/>
<path fill-rule="evenodd" clip-rule="evenodd" d="M243.465 372.922H257.521V365.188C261.318 369.466 266.755 375.009 279.102 375.009C302.494 375.009 310.908 353.451 310.908 340.619C310.908 323.681 298.219 306.708 278.76 306.708C271.612 306.708 264.122 309.377 258.821 314.681V287.58H243.499L243.465 372.922ZM257.863 340.037C257.863 330.696 265.114 320.772 276.879 320.772C286.591 320.772 295.552 328.232 295.552 340.722C295.552 353.177 287.139 360.911 277.084 360.911C268.123 360.945 257.863 354.238 257.863 340.037Z" fill="white"/>
<path fill-rule="evenodd" clip-rule="evenodd" d="M382.481 308.897H368.391V317.007H368.151C367.672 316.083 359.977 306.707 346.947 306.707C329.197 306.707 314.902 320.908 314.902 340.515C314.902 361.834 329.539 375.008 346.024 375.008C354.095 375.008 363.534 370.731 368.391 364.982V372.921H382.481V308.897V308.897ZM367.946 340.755C367.946 352.629 359.875 360.944 349.239 360.944C338.295 360.944 330.223 352.081 330.223 341.2C330.223 331.619 336.687 320.805 349.239 320.805C358.37 320.771 367.946 327.478 367.946 340.755Z" fill="white"/>
<path d="M405.933 287.576H390.612V372.952H405.933V287.576Z" fill="white"/>
<path fill-rule="evenodd" clip-rule="evenodd" d="M478.12 308.897H464.064V317.007H463.824C463.345 316.083 455.65 306.707 442.62 306.707C424.836 306.707 410.575 320.908 410.575 340.515C410.575 361.834 425.212 375.008 441.697 375.008C449.768 375.008 459.207 370.731 464.064 364.982V372.921H478.12V308.897ZM463.585 340.755C463.585 352.629 455.514 360.944 444.912 360.944C433.933 360.944 425.896 352.081 425.896 341.2C425.896 331.619 432.36 320.805 444.912 320.805C454.009 320.771 463.585 327.478 463.585 340.755Z" fill="white"/>
<path d="M486.25 372.922H501.572V342.467C501.572 337.06 501.572 330.354 504.342 326.453C507.112 322.175 512.071 320.806 514.841 320.806C527.735 320.806 527.735 336.034 527.735 341.338V372.956H543.091V338.326C543.091 333.365 543.091 322.62 537.208 315.605C531.907 309.138 523.494 306.708 517.954 306.708C508.241 306.708 502.974 312.046 500.409 314.442V308.898H486.25V372.922Z" fill="white"/>
<path d="M597.57 352.048C593.535 358.515 588.473 360.91 583.412 360.91C571.852 360.91 564.157 351.774 564.157 340.824C564.157 327.684 573.391 320.738 582.693 320.738C592.133 320.738 595.724 326.863 597.57 330.079H614.876C608.309 310.335 590.765 306.639 582.693 306.639C565.046 306.639 548.801 320.977 548.801 340.55C548.801 361.8 566.414 374.94 582.796 374.94C597.776 374.94 609.643 366.283 614.841 351.979H597.57" fill="white"/>
<path fill-rule="evenodd" clip-rule="evenodd" d="M683.066 347.775C683.511 345.688 683.956 343.053 683.956 340.041C683.956 323.89 671.165 306.336 650.884 306.336C631.151 306.336 617.231 322.966 617.231 341.068C617.231 359.751 631.972 374.979 651.021 374.979C666.001 374.979 678.244 364.268 681.904 352.702H665.761C662.888 358.006 657.827 360.881 651.021 360.881C640.043 360.881 634.092 351.881 633.408 347.741L683.066 347.775ZM632.929 335.422C635.802 323.548 645.378 320.434 651.021 320.434C658.648 320.434 666.582 325.156 668.292 335.422H632.929Z" fill="white"/>
<path fill-rule="evenodd" clip-rule="evenodd" d="M260.981 160.725L240.461 196.108L127.054 189.743L138.408 169.999L260.981 160.725ZM342.959 47.872L353.253 86.9498L192.342 76.3762L203.696 56.6662L342.959 47.872ZM236.255 0L330.441 0.0684208L337.555 26.7933L224.935 19.71L236.255 0ZM228.013 218.11L211.631 246.272L94.4615 246.409L105.816 226.699C105.782 226.665 228.013 218.11 228.013 218.11ZM433.76 142.213L405.408 191.42H432.426C444.943 191.42 467.378 185.158 474.287 167.33C480.682 150.768 468.917 142.213 460.709 142.213C460.675 142.179 433.76 142.213 433.76 142.213ZM460.778 95.1623L484.341 95.0255C500.039 94.957 516.387 87.7711 522.372 73.1939C527.878 59.6775 520.457 48.18 510.641 48.2142L487.83 48.18L460.778 95.1623ZM354.142 86.9498L377.945 45.6478L458.486 40.4808L461.291 35.4848L386.803 30.2836L404.211 0.0342104H542.345C584.821 0.0342104 616.251 15.2273 604.041 59.917C600.348 73.4677 583.111 107.55 532.461 121.819C543.234 123.119 569.978 134.959 565.361 165.721C557.153 220.266 486.53 246.272 447.269 246.272L284.169 246.341L276.132 214.757L361.563 208.734L364.47 203.738L271.823 198.092L261.836 160.657L393.677 152.958L396.55 147.996L159.681 133.043L171.035 113.333L425.996 96.7706L428.869 91.8089L354.142 86.9498Z" fill="white"/>
</svg>
