<svg width="650" height="487" viewBox="0 0 650 487" fill="none" xmlns="http://www.w3.org/2000/svg">
<path d="M219.226 355.517H202.854V384.865H188.168V400.598H202.854V463.361C202.854 481.688 209.061 486.841 226.122 486.841C230.181 486.841 236.287 484.599 236.287 484.599V469.455C236.287 469.455 230.328 471.743 225.93 470.769C222.448 469.987 219.226 469.341 219.226 461.82V400.598H239.057V384.865H219.226V355.517Z" fill="white"/>
<path d="M266.553 483.636V429.018C266.553 415.255 278.458 393.304 302.359 400.191V383.155C285.276 381.513 275.304 385.137 265.377 400.1V384.752H248.418V483.636H266.553Z" fill="white"/>
<path d="M402.554 483.523H420.056V423.671C420.056 411.653 429.96 396.6 444.67 396.6C459.074 396.6 466.739 404.903 466.739 420.421V483.523H484.976V419.344C484.976 397.925 474.823 382.838 450.696 382.883C436.45 382.906 428.4 386.145 420.147 397.767V384.865H402.554V483.523Z" fill="white"/>
<path d="M613.696 483.636V429.018C613.696 415.255 625.601 393.304 649.502 400.191V383.155C632.419 381.513 622.447 385.137 612.52 400.1V384.752H595.561V483.636H613.696Z" fill="white"/>
<path d="M315.531 433.231C315.531 408.663 329.347 395.014 346.419 395.014C363.492 395.014 377.308 408.663 377.308 433.231C377.308 457.595 363.48 471.233 346.419 471.233C329.347 471.244 315.531 457.595 315.531 433.231ZM298.267 433.231C298.267 462.67 314.966 485.856 346.431 485.856C377.896 485.856 394.595 462.659 394.595 433.231C394.595 403.6 377.896 380.391 346.431 380.391C314.966 380.391 298.267 403.6 298.267 433.231Z" fill="white"/>
<path d="M509.069 433.764C509.069 409.196 522.897 395.547 539.969 395.547C557.041 395.547 570.857 409.196 570.857 433.764C570.857 458.139 557.03 471.777 539.969 471.777C522.897 471.777 509.069 458.139 509.069 433.764ZM491.816 433.764C491.816 463.213 508.515 486.4 539.98 486.4C571.445 486.4 588.144 463.202 588.144 433.764C588.144 404.144 571.445 380.924 539.98 380.924C508.515 380.924 491.816 404.144 491.816 433.764Z" fill="white"/>
<path d="M0 483.341H20.2153V427.001H60.2729C87.6224 427.194 102.433 411.767 102.433 386.293C102.433 360.83 87.6111 345.572 60.2729 345.572H0V483.341ZM20.2153 362.608H54.1111C74.7108 362.608 84.1401 369.914 84.1401 386.304C84.1401 402.694 74.7108 410.985 54.1111 410.793H20.2153V362.608Z" fill="white"/>
<path d="M115.65 424.759C116.826 408.765 127.657 394.153 145.114 394.153C161.587 394.153 173.108 408.357 173.899 424.759H115.65ZM173.673 451.649C170.734 464.811 161.135 472.264 147.409 472.264C125.249 472.264 115.255 456.553 115.842 438.883H191.707C192.701 414.338 181.712 380.742 145.838 380.742C118.194 380.742 98.2049 403.147 98.2049 433.571C99.1773 464.607 114.474 487 146.821 487C169.558 487 185.646 474.031 190.146 451.649H173.673Z" fill="white"/>
<path d="M547.996 0.0113436C604.323 0.0113436 650 46.1118 650 102.554C650 111.004 648.971 119.204 647.049 127.054C633.719 179.044 586.607 217.386 530.551 217.386L463.935 217.465L543.598 46.1231L514.801 46.1005L501.585 73.8854H473.636L486.841 46.1005H458.87L445.665 73.8854H417.931L430.707 46.1005L402.532 46.1231L323.502 217.454L378.891 317.323L151.728 317.346L299.431 0.124613L547.996 0.0113436Z" fill="white"/>
<path d="M271.63 0H0.0566139V317.346H122.954L271.63 0Z" fill="white"/>
</svg>
