<svg width="346" height="196" viewBox="0 0 346 196" fill="none" xmlns="http://www.w3.org/2000/svg">
<path d="M121.239 0C123.039 0 124.639 0.799999 125.939 2.1L123.939 4.3C123.239 3.6 122.339 3.1 121.239 3.1C119.039 3.1 117.339 5 117.339 8.2C117.339 11.4 118.839 13.3 121.139 13.3C122.339 13.3 123.439 12.8 124.139 11.9L126.139 14.1C124.939 15.6 123.039 16.4 121.139 16.4C117.039 16.4 113.739 13.6 113.739 8.3C113.739 3 117.239 0 121.239 0ZM131.939 2.2H140.639V4.8H135.139V7.6H139.839V10.3H135.139V13.5H140.939V16.1H132.039L131.939 2.2ZM154.139 16.1L151.539 11.1H149.839V16.1H146.739V2.3H151.739C154.639 2.3 157.039 3.3 157.039 6.6C157.139 8.3 156.139 9.9 154.539 10.6L157.639 16.1H154.139ZM149.839 8.6H151.439C153.039 8.6 153.939 7.9 153.939 6.5C153.939 5.1 153.039 4.7 151.439 4.7H149.839V8.6ZM160.739 2.2H164.039L165.739 8.6C166.139 10.1 166.439 11.5 166.839 13H166.939C167.339 11.5 167.639 10.1 168.039 8.6L169.639 2.2H172.839L168.639 16H164.939L160.739 2.2ZM177.539 2.2H186.239V4.8H180.739V7.6H185.439V10.3H180.739V13.5H186.539V16.1H177.539V2.2ZM191.439 14.2L197.539 4.9H192.039V2.3H201.439V4.2L195.339 13.5H201.439V16.1H191.439V14.2ZM213.439 12.8H209.239L208.339 16.1H205.139L209.539 2.3H213.239L217.539 16.1H214.239L213.439 12.8ZM212.739 10.3L212.439 9C212.039 7.6 211.739 6 211.339 4.6H211.239C210.939 6.1 210.539 7.7 210.139 9L209.839 10.3H212.739ZM223.139 12.2C224.039 13.1 225.239 13.6 226.539 13.6C227.839 13.6 228.439 13.1 228.439 12.3C228.439 11.5 227.639 11.1 226.439 10.6L224.639 9.8C222.939 9.3 221.839 7.8 221.839 6C221.839 3.7 223.939 1.9 226.739 1.9C228.439 1.9 230.039 2.6 231.139 3.7L229.539 5.7C228.739 5 227.739 4.6 226.639 4.6C225.539 4.6 224.839 5.1 224.839 5.9C224.839 6.7 225.739 7.1 226.939 7.5L228.739 8.2C230.439 8.7 231.539 10.2 231.439 12C231.439 14.3 229.539 16.3 226.239 16.3C224.339 16.3 222.539 15.6 221.139 14.3L223.139 12.2ZM105.039 190.9C106.139 191.9 107.439 192.5 108.939 192.5C110.439 192.5 111.139 191.9 111.139 191C111.139 190.1 110.239 189.7 108.839 189.1L106.839 188.2C104.939 187.6 103.639 185.9 103.639 183.9C103.639 181.3 106.039 179.2 109.239 179.2C111.139 179.2 112.939 180 114.339 181.3L112.539 183.6C111.639 182.8 110.439 182.3 109.239 182.3C108.039 182.3 107.239 182.8 107.239 183.7C107.239 184.6 108.239 185 109.639 185.6L111.639 186.4C113.539 187 114.839 188.7 114.739 190.7C114.739 193.3 112.539 195.6 108.839 195.6C106.639 195.6 104.639 194.8 103.039 193.3L105.039 190.9ZM120.839 181.5H123.939V195.3H120.839V181.5ZM130.339 181.5H133.539L137.139 188.4L138.539 191.5H138.639C138.539 190 138.239 188.1 138.239 186.5V181.6H141.239V195.3H138.039L134.439 188.4L133.039 185.4H132.939C133.039 186.9 133.339 188.8 133.339 190.4V195.3H130.339V181.5ZM153.539 181.2C155.039 181.2 156.539 181.9 157.639 183L155.939 184.9C155.339 184.3 154.439 183.9 153.639 183.9C151.739 183.9 150.239 185.6 150.239 188.4C150.239 191.2 151.539 192.9 153.639 192.9C154.639 192.9 155.639 192.5 156.239 191.7L157.939 193.6C156.839 194.9 155.239 195.6 153.539 195.6C149.939 195.6 147.039 193.2 147.039 188.5C147.039 183.8 150.039 181.2 153.539 181.2ZM163.139 181.5H171.839V184.1H166.339V186.9H171.039V189.5H166.339V192.7H172.139V195.3H163.239L163.139 181.5ZM184.439 192.4H187.739V183.5H184.839V181.3C186.239 181.1 187.439 180.6 188.639 179.9H191.239V192.4H194.139V195.3H184.339L184.439 192.4ZM202.339 187.6V187.5C201.139 186.7 200.339 185.3 200.239 183.9C200.239 181.3 202.339 179.7 205.139 179.7C207.939 179.7 209.839 181.4 209.839 183.9C209.739 185.3 209.039 186.5 207.839 187.3V187.4C209.439 188.1 210.439 189.7 210.539 191.4C210.539 193.8 208.339 195.7 205.139 195.7C202.039 195.7 199.839 194 199.839 191.5C199.739 189.7 200.839 188.3 202.339 187.6ZM205.139 193.1C206.139 193.2 207.039 192.5 207.139 191.5C207.139 191.4 207.139 191.3 207.139 191.2C207.139 189.8 205.839 189.3 203.939 188.5C203.239 189.1 202.839 190 202.739 190.9C202.739 192.1 203.739 193.1 204.939 193.1C205.039 193.1 205.039 193.1 205.139 193.1ZM206.939 184.1C207.039 183.1 206.339 182.2 205.339 182.1C205.239 182.1 205.139 182.1 205.039 182.1C204.139 182 203.339 182.7 203.339 183.6C203.339 183.7 203.339 183.8 203.339 183.9C203.339 185.2 204.439 185.8 205.939 186.4C206.639 185.8 206.939 185 206.939 184.1ZM217.539 191.6C218.139 192.3 219.039 192.7 219.939 192.7C221.639 192.7 222.939 191.5 223.139 187.9C222.339 188.8 221.239 189.4 220.039 189.5C217.439 189.5 215.439 188 215.439 184.8C215.339 182.1 217.439 179.8 220.139 179.7C220.239 179.7 220.439 179.7 220.539 179.7C223.539 179.7 226.339 181.9 226.339 187.3C226.339 193 223.339 195.6 220.139 195.6C218.439 195.6 216.839 195 215.639 193.8L217.539 191.6ZM223.039 185.5C222.739 183.1 221.739 182.3 220.639 182.3C219.539 182.3 218.739 183.1 218.739 184.8C218.739 186.5 219.639 187 220.739 187C221.639 187 222.539 186.4 223.039 185.5ZM231.439 187.6C231.439 182.4 233.639 179.7 236.939 179.7C240.239 179.7 242.439 182.4 242.439 187.6C242.439 192.8 240.239 195.6 236.939 195.6C233.639 195.6 231.439 192.8 231.439 187.6ZM239.039 187.6C239.039 183.4 238.139 182.5 236.939 182.5C235.739 182.5 234.839 183.4 234.839 187.6C234.839 191.8 235.739 192.9 236.939 192.9C238.139 192.9 239.039 191.8 239.039 187.6Z" fill="white"/>
<path d="M11.0394 181.5C19.8394 181.4 28.5394 182.4 37.0394 184.5C38.8394 185 39.3394 184.7 40.0394 184C46.4394 177 53.8394 161 51.0394 151.7C48.3394 142.8 41.3394 136.9 30.7394 127.9L23.0394 121.3C22.7394 121 22.6394 120.5 22.7394 120.1C22.8394 119.7 23.2394 119.4 23.6394 119.2C26.1394 118.4 28.8394 117.8 31.5394 117.2L35.0394 116.3C48.0394 113.1 50.8394 110 53.6394 101.3C53.8394 100.9 53.7394 100.5 53.5394 100.2C53.3394 100 53.1394 99.9 52.8394 100L50.8394 100.3C39.2394 102.2 28.1394 104.4 24.4394 105.5C22.5394 106.1 21.5394 107.3 20.2394 109.4C16.9394 115 15.1394 118.8 13.9394 122.8C13.2394 124.9 13.1394 127.1 13.7394 129.3C14.2394 131.1 16.5394 133.1 18.2394 134.6L24.9394 140.5C28.6394 143.7 32.9394 147.8 34.6394 149.5C36.6394 151.5 38.1394 154 38.9394 156.8C40.2394 161.2 39.4394 166 36.9394 169.9C36.2394 171 35.6394 170.9 34.9394 170.7L34.6394 170.6C23.5394 168.2 15.9394 169.3 11.5394 170.7C8.73939 171.7 6.23939 173.4 4.23939 175.6C2.73939 177.1 1.43939 178.7 0.239388 180.3C-0.0606121 180.6 -0.0606125 181.1 0.139388 181.5C0.239388 181.8 0.539386 181.9 0.839386 181.9C3.53939 181.7 7.03939 181.5 11.0394 181.5ZM71.1394 126.4C71.9394 126.4 72.6394 126.8 73.1394 127.4C73.7394 128.1 74.1394 128.8 74.3394 129.7L74.4394 129.9L67.7394 134.9C58.9394 141.5 54.9394 148.5 56.4394 154.5C57.6394 159.1 60.0394 162.7 62.8394 164.3C64.3394 165.2 66.1394 165.4 67.8394 164.9C70.6394 164 74.1394 160.1 75.9394 156.7L76.1394 156.4L78.8394 159.9C79.4394 160.7 79.7394 160.7 80.5394 160.5L84.8394 159.2C85.4394 159 85.6394 158.8 85.6394 157.4V126.1C85.6394 123.5 83.2394 119.8 79.9394 117.4C77.7394 115.8 75.6394 115.1 74.0394 115.6L59.1394 120.2C58.7394 120.3 58.5394 120.7 58.5394 121.1V129.2C58.5394 129.5 58.6394 129.7 58.8394 129.9C59.0394 130 59.2394 130 59.4394 130L70.4394 126.6C70.6394 126.5 70.8394 126.4 71.1394 126.4ZM70.2394 154.1C68.8394 154.1 67.4394 152.5 66.6394 149.7C65.4394 145.9 68.9394 142 72.5394 138.6L74.3394 136.8V149.7C74.3394 151.4 71.7394 153.6 70.7394 153.9C70.6394 154 70.4394 154.1 70.2394 154.1ZM211.639 73.5C211.539 73.5 211.539 73.5 211.439 73.5L201.639 76.5C201.039 76.7 200.839 76.9 200.839 78.3V122.6C200.839 122.9 200.939 123.2 201.139 123.4C201.239 123.5 201.439 123.5 201.639 123.5L211.439 120.5C212.039 120.3 212.239 120.1 212.239 118.7V74.4C212.239 74.1 212.139 73.8 211.939 73.6C211.839 73.5 211.739 73.5 211.639 73.5ZM207.139 54.4C207.039 54.4 207.039 54.4 206.939 54.4C206.539 54.6 206.139 54.9 205.839 55.3L199.839 61.3C199.539 61.6 199.339 62 199.439 62.4C199.539 62.7 199.739 62.9 199.939 63.1L205.839 69.2C206.439 69.7 206.639 69.8 206.939 69.7C207.339 69.5 207.739 69.2 208.039 68.8L214.039 62.8C214.339 62.5 214.539 62.1 214.439 61.7C214.339 61.4 214.139 61.2 213.939 61L208.039 54.9C207.639 54.5 207.339 54.4 207.139 54.4ZM344.739 12.4C344.639 12.4 344.639 12.4 344.539 12.4L334.739 15.4C334.139 15.6 333.939 15.8 333.939 17.2V81.9C333.939 82.2 334.039 82.5 334.239 82.7C334.339 82.8 334.539 82.8 334.739 82.8L344.539 79.8C345.139 79.6 345.339 79.4 345.339 78V13.3C345.339 13 345.239 12.7 345.039 12.5C344.939 12.4 344.839 12.4 344.739 12.4ZM123.139 80.6C125.239 81.6 127.439 82.4 129.739 83.1L130.739 83.4L132.839 84.1C134.139 84.5 134.339 84.8 134.339 86.5L134.539 142.7C134.539 143 134.639 143.3 134.839 143.5C134.939 143.6 135.139 143.6 135.339 143.6L146.139 140.3C146.739 140.1 146.939 139.9 146.939 138.5V84.5C146.939 83 150.239 80.8 152.439 80.1C153.239 79.9 154.039 80.1 154.639 80.6C155.839 81.6 156.639 83 156.839 84.6V135.9C156.839 136.2 156.939 136.5 157.139 136.7C157.239 136.8 157.439 136.8 157.639 136.8L168.439 133.5C169.039 133.3 169.239 133.1 169.239 131.7V77.7C169.239 76.2 172.539 74 174.739 73.3C175.539 73.1 176.339 73.3 176.939 73.8C178.139 74.8 178.939 76.2 179.139 77.8V129.1C179.139 129.4 179.239 129.7 179.439 129.9C179.539 130 179.739 130 179.939 130L190.739 126.7C191.339 126.5 191.539 126.3 191.539 124.9L191.639 72.4C191.639 71.2 191.439 69.9 191.139 68.7C190.539 66.3 187.339 62.8 183.739 60.8C181.639 59.6 178.539 58.4 175.639 59.2C173.639 59.8 167.039 64.3 162.639 69.1L162.539 69.2L162.339 69.1C158.739 66.8 154.439 65.6 152.239 66.3C150.239 66.9 130.739 74.9 122.639 79.1C122.339 79.2 122.139 79.5 122.139 79.9C122.639 80.1 122.839 80.5 123.139 80.6ZM16.7394 148.2L24.8394 154.7C28.3394 157.4 31.3394 160.7 33.6394 164.4L34.0394 165.1C34.3394 165.5 34.4394 165.6 34.8394 165.4C35.0394 165.3 35.2394 165.2 35.4394 164.6C35.9394 162.7 35.9394 160.7 35.3394 158.8C34.3394 155.6 31.8394 152.4 27.5394 148.8L20.7394 143.2C16.8394 139.9 13.7394 137.3 11.3394 134.3C11.1394 134 11.0394 134.1 10.9394 134.1C10.6394 134.2 10.6394 134.3 10.4394 134.5C8.23939 138.6 10.3394 143 16.7394 148.2ZM90.2394 112.5C93.1394 115.1 94.1394 121.1 94.0394 123.7V155.3C94.0394 155.6 94.1394 155.9 94.3394 156.1C94.4394 156.2 94.6394 156.2 94.8394 156.2L104.639 153.2C105.239 153 105.439 152.8 105.439 151.4V119.5C105.439 117.3 108.739 114.1 110.439 113.5C112.139 112.9 113.439 114.7 113.839 115.9C114.039 116.8 114.139 117.8 114.039 118.8V149.1C114.039 149.4 114.139 149.7 114.339 149.9C114.439 150 114.639 150 114.839 150L124.639 147C125.239 146.8 125.439 146.6 125.439 145.2V113.6C125.439 112.5 125.339 111.3 125.039 110.2C124.239 107.8 122.639 105.7 120.639 104.3C118.439 102.7 116.039 102.1 114.239 102.7C111.939 103.4 107.239 106.3 103.839 111.4L103.639 111.7L103.439 111.4C102.939 110.6 102.339 109.9 101.739 109.2C100.639 108.1 100.039 107.6 99.1394 107.8L89.6394 110.7C89.4394 110.7 89.2394 110.9 89.2394 111.1C89.2394 111.3 89.3394 111.6 89.5394 111.7L90.2394 112.5ZM233.139 121C229.839 120.9 226.539 121.4 223.339 122.3C220.039 123.3 216.139 127.7 214.439 130.2C214.239 130.4 214.239 130.7 214.339 130.9C214.439 131.1 214.639 131.2 214.839 131.2L224.639 131C232.039 130.9 237.839 130.8 240.739 130.8H240.939C242.839 130.8 243.639 130.9 244.839 129.5C249.039 124.7 251.339 117.6 251.339 109.6L251.239 65.4C251.339 64.7 251.139 63.9 250.639 63.3C250.339 63 249.839 62.9 249.339 62.9C244.639 63.1 240.039 63.9 235.639 65.4C228.339 67.6 219.939 72 219.939 86.2V104C219.939 105.1 220.039 106.3 220.239 107.4C220.739 109.6 222.639 111.9 225.339 113.4C227.639 114.8 230.239 115.3 231.839 114.8C233.739 114.2 237.139 111.9 240.039 108.3L240.439 107.8V110.8C240.439 113.3 240.339 117.4 238.139 120.4C237.539 121.1 236.739 121.2 235.039 121.2C234.439 121 233.839 121 233.139 121ZM234.539 104.3C233.739 104.2 232.939 103.8 232.339 103.1C231.339 102.1 231.339 101.1 231.339 99.4V84.7C231.339 77.5 232.339 75.4 236.339 74.2H236.439C237.939 73.8 239.039 73.7 239.639 74.2C239.939 74.5 240.139 74.9 240.139 75.3V98.5L240.039 98.9C239.739 101.1 236.839 103.7 235.239 104.2C235.039 104.3 234.739 104.3 234.539 104.3ZM317.439 41.3C315.339 41.3 313.339 41.7 311.339 42.3C298.339 46.3 298.139 54.8 298.039 59.3C298.039 59.8 298.039 60.3 298.039 60.7V79.6C298.039 82.1 300.539 85.7 303.839 88.2C306.239 90 308.539 90.7 310.139 90.2L325.039 85.6C325.439 85.5 325.639 85.1 325.639 84.7V76.6C325.639 76.3 325.539 76.1 325.339 75.9C325.139 75.8 324.939 75.8 324.739 75.8L313.339 79.3C312.439 79.5 311.539 79.4 310.839 78.8C309.939 78.1 309.339 77.1 309.139 76V75.9L311.639 74.1L313.039 73.1C318.839 68.9 326.639 63.2 326.739 52.1C326.739 47.8 325.439 44.6 323.139 42.9C321.439 41.7 319.439 41.2 317.439 41.3ZM309.239 68.5L309.139 57.6C309.139 53.6 309.439 51.6 312.239 50.7C313.039 50.4 313.939 50.4 314.739 50.8C315.539 51.3 316.039 52.4 316.339 54.1C317.439 61.5 312.139 66.3 309.839 68L309.239 68.5ZM269.739 55.7C269.639 55.7 269.639 55.7 269.539 55.7L259.739 58.7C259.139 58.9 258.939 59.1 258.939 60.5V92.1C258.939 93.5 259.139 94.9 259.539 96.2C260.839 100.5 265.839 104.4 270.339 103C272.539 102.3 277.139 99.4 280.639 94.3L280.839 94L283.539 97.2C284.239 98 284.439 98 285.239 97.8L289.539 96.5C290.139 96.3 290.339 96.1 290.339 94.7V50.4C290.339 50.1 290.239 49.8 290.039 49.6C289.939 49.5 289.739 49.5 289.539 49.5L279.739 52.5C279.139 52.7 278.939 52.9 278.939 54.3V86.3C278.939 88.5 275.639 91.7 273.939 92.3C273.139 92.5 272.339 92.3 271.839 91.8C271.239 91.3 270.839 90.7 270.639 90C270.439 89 270.339 88 270.439 87.1V56.8C270.439 56.5 270.339 56.2 270.139 56C270.039 55.8 269.839 55.7 269.739 55.7Z" fill="white"/>
</svg>
