<svg width="1318" height="428" viewBox="0 0 1318 428" fill="none" xmlns="http://www.w3.org/2000/svg">
<path d="M654.182 1.26175C663.493 -1.5163 674.348 0.26714 681.671 6.86929C687.878 12.6483 690.519 21.2911 690.554 29.6081C690.588 111.355 690.571 193.101 690.571 274.848C690.125 287.092 692.714 300.828 685.135 311.477C677.589 322.469 661.744 325.367 650.118 319.571C640.634 314.855 635.558 303.983 635.679 293.711C635.713 209.152 635.679 124.576 635.696 40.0172C635.799 32.4719 634.907 24.6351 637.582 17.4156C640.24 9.87027 646.465 3.55964 654.182 1.26175Z" fill="white"/>
<path d="M436.379 155.443C450.304 135.586 473.506 123.342 497.445 121.026C522.876 118.214 550.931 122.536 570.635 140.01C588.932 156.095 597.095 180.737 598.758 204.454C599.272 213.782 600.644 224.02 595.774 232.491C591.984 239.179 583.633 240.946 576.534 240.997C541.208 241.066 505.865 240.946 470.539 241.048C472.785 254.184 478.942 268.263 491.992 273.785C510.203 281.536 530.747 276.974 548.959 271.521C556.178 269.378 563.638 266.72 571.286 267.783C581.953 270.081 589.532 281.519 588.315 292.219C587.286 300.365 580.564 306.23 573.858 310.105C561.546 316.93 547.467 319.657 533.628 321.286C507.425 324.338 479.045 322.298 456.563 307.241C434.287 292.837 421.529 267.2 418.391 241.374C414.772 211.948 418.854 180.069 436.379 155.443ZM488.305 167.67C475.135 174.598 471.877 190.632 470.556 204.145C496.313 204.162 522.087 204.111 547.844 204.162C546.867 190.375 542.271 174.787 529.152 167.876C516.6 161.703 500.943 161.771 488.305 167.67Z" fill="white"/>
<path d="M223.619 122.484C233.067 119.826 244.248 121.421 251.33 128.606C257.332 134.505 259.733 143.097 259.699 151.311C259.75 181.663 259.682 211.999 259.716 242.335C259.647 253.275 264.123 264.936 273.675 270.973C282.078 276.426 292.555 276.923 302.244 275.791C310.561 274.745 318.861 270.853 323.697 263.787C329.15 256.071 329.922 246.296 330.025 237.139C330.042 207.403 330.008 177.668 330.025 147.95C330.11 137.592 336.352 127.2 346.178 123.393C356.862 119.089 370.649 121.129 378.126 130.407C383.957 137.112 385.088 146.355 384.934 154.929C384.745 182.298 385.14 209.684 384.745 237.07C384.179 260.495 377.835 285.549 360 301.908C340.88 319.537 313.459 323.807 288.371 322.829C265.255 322.041 240.681 315.096 224.939 297.193C210.5 280.867 205.081 258.471 204.841 237.139C204.875 207.403 204.79 177.668 204.875 147.95C205.013 136.683 212.626 125.639 223.619 122.484Z" fill="white"/>
<path d="M897.518 122.776C923.275 119.535 951.347 120.718 974.052 134.66C989.674 144.023 1000.31 160.194 1004.9 177.634C1008.06 189.174 1009.1 201.213 1009.12 213.148C1009.09 239.419 1009.1 265.691 1009.12 291.962C1009.27 300.657 1006.45 309.814 999.792 315.713C989.965 324.493 973.897 324.699 963.694 316.467C957.006 311.031 953.508 302.269 953.765 293.729C953.851 267.423 953.765 241.117 953.817 214.811C953.868 203.219 954.297 190.495 947.249 180.583C941.487 172.06 931.043 168.151 921.08 167.79C911.237 167.499 900.485 169.385 893.111 176.433C886.252 183.275 883.868 193.324 883.902 202.756C883.954 232.56 883.885 262.364 883.954 292.151C883.971 299.25 882.428 306.607 877.986 312.318C868.554 324.922 847.599 325.968 836.796 314.598C831.394 309.145 828.993 301.325 829.044 293.78C829.027 273.768 829.062 253.773 829.044 233.76C829.233 215.48 827.81 196.857 832.749 179.005C836.864 162.011 846.707 146.235 861.215 136.237C872.018 128.898 884.674 124.696 897.518 122.776Z" fill="white"/>
<path d="M1075.31 144.365C1094.04 127.903 1119.54 120.752 1144.15 121.352C1168.26 121.387 1192.85 126.325 1213.98 138.278C1223.7 143.56 1230.99 153.797 1230.75 165.149C1230.75 221.756 1230.73 278.381 1230.76 335.005C1230.4 360.625 1222.19 387.805 1202.16 404.936C1182.05 422.256 1154.49 427.332 1128.66 426.989C1108.8 426.149 1088.79 421.141 1071.7 410.801C1065.52 406.84 1059.69 401.901 1056.11 395.419C1049.56 383.329 1057.17 366.078 1070.65 363.042C1080.56 361.499 1089.86 366.352 1098.77 369.97C1110.88 375.304 1124.08 378.322 1137.36 377.842C1148.67 377.824 1160.82 374.995 1169.03 366.729C1176.66 358.79 1178.99 347.335 1178.91 336.668C1178.87 326.791 1178.82 316.93 1178.89 307.053C1163.39 320.686 1141.63 323.961 1121.67 322.675C1100.76 321.389 1080.25 312.06 1066.57 296.009C1047.31 273.939 1041.62 243.226 1043.18 214.726C1044.51 188.403 1054.98 161.737 1075.31 144.365ZM1133.07 168.236C1124.68 169.677 1116.52 173.381 1110.6 179.588C1099.78 191.318 1097.33 208.072 1097.35 223.42C1097.57 237.224 1098.65 252.229 1107.21 263.684C1115.32 274.231 1129.73 276.631 1142.24 275.654C1154.21 275.071 1166.03 268.555 1171.53 257.648C1181.82 238.133 1178.17 215.394 1178.89 194.233C1178.51 187.94 1180.78 179.811 1174.48 175.73C1162.75 167.087 1147.01 166.161 1133.07 168.236Z" fill="white"/>
<path d="M2.79802 137.043C8.61134 125.777 22.9474 121.387 34.797 123.805C44.2115 125.554 50.9166 133.905 53.2659 142.805C64.1037 179.383 74.9758 215.943 85.745 252.555C86.3281 254.699 87.3399 256.722 88.506 258.609C99.8582 221.139 110.868 183.567 121.98 146.012C124.072 137.969 127.947 129.515 135.836 125.742C148.508 119.963 165.948 124.062 173.134 136.443C177.712 144.657 176.546 154.706 173.236 163.143C157.82 206.066 142.695 249.091 127.33 292.031C124.106 300.296 121.019 309.094 114.589 315.507C107.935 321.835 98.1948 322.469 89.4834 322.538C79.8117 322.589 69.0425 321.698 61.6172 314.735C54.8093 308.202 51.2424 299.165 48.0185 290.505C32.7735 247.428 17.6486 204.317 2.33501 161.291C-0.51163 153.54 -1.19757 144.52 2.79802 137.043Z" fill="white"/>
<path d="M750.436 125.108C761.977 120.529 776.639 124.01 783.67 134.574C787.854 140.421 788.814 147.847 788.78 154.86C788.711 200.595 788.746 246.347 788.763 292.082C788.746 299.731 786.842 307.722 781.629 313.535C771.751 325.196 751.551 325.522 741.261 314.255C736.323 308.716 733.802 301.257 733.853 293.883C733.87 246.399 733.888 198.898 733.853 151.414C733.562 140.439 739.924 129.069 750.436 125.108Z" fill="white"/>
<path d="M1268.39 20.6566C1277.06 17.9129 1286.63 17.9129 1295.31 20.6909C1306.1 24.1549 1314.64 33.8095 1316.52 45.0074C1317.71 54.6277 1317.28 65.2598 1311.38 73.4053C1299.89 89.4905 1274.94 91.6855 1259.26 80.7277C1239.12 65.7228 1243.25 28.0305 1268.39 20.6566Z" fill="white"/>
</svg>
